<svg xmlns="http://www.w3.org/2000/svg" width="200" height="200" viewBox="0 0 200 200" version="1.1"><path d="M 114.500 38.886 C 112.850 39.330, 109.700 40.705, 107.500 41.941 C 105.300 43.177, 102.206 45.384, 100.624 46.844 C 99.043 48.305, 96.456 52.200, 94.875 55.500 C 93.295 58.800, 92.016 62.850, 92.033 64.500 C 92.062 67.354, 92.135 67.406, 93.532 65.559 C 94.339 64.491, 95 62.605, 95 61.368 C 95 60.130, 95.450 58.840, 96 58.500 C 96.550 58.160, 97 57.031, 97 55.991 C 97 54.950, 97.573 53.740, 98.274 53.300 C 98.975 52.860, 100.321 51.283, 101.267 49.796 C 102.212 48.310, 104.980 45.924, 107.419 44.494 C 110.535 42.669, 113.898 41.725, 118.729 41.320 C 123.559 40.915, 127.225 41.217, 131.052 42.337 C 134.048 43.214, 138.204 45.343, 140.287 47.069 C 142.640 49.018, 145.183 52.653, 147.004 56.669 C 148.615 60.223, 150.205 64.578, 150.537 66.347 C 150.903 68.298, 150.490 71.322, 149.488 74.032 C 148.580 76.489, 147.609 79.441, 147.332 80.592 C 147.054 81.742, 145.179 84.584, 143.164 86.907 C 141.149 89.230, 138.825 91.226, 138 91.343 C 137.175 91.460, 135.938 91.908, 135.250 92.337 C 134.563 92.767, 134 93.776, 134 94.579 C 134 95.778, 134.674 95.694, 137.750 94.112 C 139.813 93.051, 142.697 90.904, 144.160 89.342 C 145.624 87.779, 147.753 84.689, 148.893 82.476 C 150.033 80.263, 151.380 76.213, 151.886 73.476 C 152.392 70.739, 152.481 66.433, 152.085 63.906 C 151.689 61.379, 150.343 57.329, 149.095 54.906 C 147.847 52.483, 145.402 49.008, 143.663 47.184 C 141.923 45.360, 138.256 42.737, 135.512 41.356 C 132.174 39.674, 128.371 38.717, 124.012 38.462 C 120.431 38.251, 116.150 38.442, 114.500 38.886 M 92.015 71.567 C 92.006 74.141, 93.102 77.790, 95.003 81.506 C 96.654 84.735, 99.017 88.461, 100.253 89.786 C 101.489 91.111, 104.300 93.163, 106.500 94.347 C 110.500 96.500, 110.500 96.500, 88.107 96.770 C 65.714 97.039, 65.714 97.039, 66.340 103.738 C 66.776 108.404, 67.939 112.334, 70.173 116.690 C 71.938 120.130, 75.731 125.265, 78.603 128.101 C 81.474 130.937, 85.551 134.316, 87.662 135.608 C 89.773 136.901, 93.075 138.703, 95 139.612 C 98.131 141.092, 98.289 141.345, 96.500 142.017 C 95.400 142.429, 91.800 143.549, 88.500 144.506 C 85.200 145.463, 79.125 147.952, 75 150.037 C 70.875 152.122, 64.961 156.109, 61.858 158.898 C 58.755 161.686, 54.578 166.435, 52.577 169.451 C 50.542 172.516, 48.232 177.789, 47.339 181.409 C 46.460 184.970, 46.012 188.588, 46.342 189.448 C 46.880 190.852, 54.696 190.986, 122.221 190.756 C 197.500 190.500, 197.500 190.500, 197.818 187.732 C 197.993 186.209, 196.989 181.767, 195.586 177.860 C 193.951 173.307, 191.389 168.830, 188.450 165.390 C 185.929 162.439, 181.983 158.496, 179.683 156.628 C 177.382 154.761, 172.725 151.843, 169.333 150.144 C 165.941 148.445, 160.766 146.143, 157.833 145.028 C 154.900 143.913, 151.600 142.994, 150.500 142.985 C 149.400 142.976, 147.909 142.594, 147.186 142.136 C 146.267 141.553, 147.611 140.431, 151.660 138.402 C 154.843 136.806, 160.420 132.705, 164.054 129.288 C 168.487 125.121, 171.774 120.885, 174.041 116.419 C 176.537 111.502, 177.527 108.093, 177.827 103.381 C 178.233 97, 178.233 97, 154.416 97 C 136.675 97, 130.889 97.289, 131.733 98.133 C 132.465 98.865, 139.524 99.411, 151.683 99.677 C 162.032 99.903, 171.963 100.313, 173.750 100.589 C 176.373 100.994, 177 101.553, 177 103.486 C 177 104.804, 176.580 106.142, 176.066 106.459 C 175.552 106.777, 174.414 109.504, 173.538 112.518 C 172.661 115.533, 171.518 118, 170.998 118 C 170.477 118, 169.346 119.364, 168.484 121.031 C 167.622 122.699, 165.518 125.399, 163.810 127.031 C 162.101 128.664, 160.117 130, 159.401 130 C 158.685 130, 157.675 130.759, 157.156 131.686 C 156.637 132.613, 153.636 134.765, 150.487 136.466 C 147.339 138.168, 144.744 139.997, 144.722 140.530 C 144.700 141.064, 146.441 142.361, 148.591 143.413 C 150.741 144.465, 153.281 145.702, 154.236 146.163 C 155.191 146.623, 156.526 147, 157.201 147 C 157.877 147, 162.158 148.821, 166.715 151.048 C 171.272 153.274, 175 155.639, 175 156.304 C 175 156.968, 176.447 158.152, 178.215 158.935 C 179.983 159.718, 182.906 161.965, 184.710 163.929 C 186.514 165.893, 187.993 168.040, 187.995 168.700 C 187.998 169.360, 188.614 170.260, 189.365 170.700 C 190.115 171.140, 191.465 172.940, 192.365 174.700 C 193.264 176.461, 194 178.786, 194 179.867 C 194 180.948, 194.391 181.983, 194.868 182.167 C 195.345 182.350, 196.050 183.512, 196.435 184.749 C 197.002 186.574, 196.638 187.187, 194.502 187.999 C 192.835 188.633, 165.675 189, 120.435 189 C 49 189, 49 189, 49.015 185.250 C 49.023 183.188, 49.617 179.816, 50.333 177.758 C 51.050 175.699, 52.548 172.999, 53.662 171.758 C 54.776 170.516, 56.320 168.551, 57.094 167.391 C 57.867 166.231, 61.425 162.812, 65 159.792 C 68.575 156.772, 74.523 152.659, 78.218 150.651 C 81.913 148.643, 85.824 147, 86.909 147 C 87.994 147, 89.160 146.550, 89.500 146 C 89.840 145.450, 91.805 145, 93.868 145 C 95.930 145, 98.428 144.408, 99.418 143.684 C 100.408 142.960, 101.054 141.518, 100.854 140.480 C 100.620 139.266, 98.754 137.970, 95.632 136.853 C 92.960 135.897, 89.137 133.969, 87.137 132.568 C 85.137 131.168, 82.011 128.554, 80.192 126.761 C 78.373 124.967, 75.396 121.183, 73.578 118.352 C 71.760 115.520, 69.950 111.920, 69.555 110.352 C 69.161 108.783, 68.603 105.813, 68.314 103.750 C 67.814 100.173, 67.922 99.999, 70.645 99.979 C 72.215 99.968, 82.050 99.818, 92.500 99.646 C 102.950 99.474, 112.287 98.985, 113.250 98.560 C 114.213 98.134, 115 97.384, 115 96.893 C 115 96.402, 114.341 96, 113.535 96 C 112.730 96, 111.589 95.100, 111 94 C 110.411 92.900, 109.072 92, 108.024 92 C 106.975 92, 104.066 89.978, 101.559 87.506 C 99.051 85.034, 97 82.360, 97 81.565 C 97 80.769, 96.602 79.872, 96.115 79.571 C 95.629 79.271, 94.941 77.107, 94.586 74.762 C 94.232 72.418, 93.512 69.825, 92.986 69 C 92.289 67.905, 92.026 68.598, 92.015 71.567 M 53 184 C 53 184.550, 53.450 185, 54 185 C 54.550 185, 55 184.550, 55 184 C 55 183.450, 54.550 183, 54 183 C 53.450 183, 53 183.450, 53 184" stroke="none" fill="#4382a9" fill-rule="evenodd"/><path d="M 113.358 41.954 C 111.630 42.366, 108.570 43.721, 106.557 44.965 C 104.545 46.209, 102.144 48.413, 101.223 49.863 C 100.302 51.313, 98.975 52.860, 98.274 53.300 C 97.573 53.740, 97 54.950, 97 55.991 C 97 57.031, 96.550 58.160, 96 58.500 C 95.450 58.840, 95 60.130, 95 61.368 C 95 62.605, 94.399 64.440, 93.664 65.444 C 92.563 66.950, 92.555 67.905, 93.621 70.885 C 94.331 72.873, 94.932 75.486, 94.956 76.691 C 94.980 77.896, 95.450 79.160, 96 79.500 C 96.550 79.840, 97 80.769, 97 81.565 C 97 82.360, 99.051 85.034, 101.559 87.506 C 104.066 89.978, 106.975 92, 108.024 92 C 109.072 92, 110.411 92.900, 111 94 C 111.589 95.100, 112.730 96, 113.535 96 C 114.341 96, 115 96.402, 115 96.893 C 115 97.384, 114.213 98.134, 113.250 98.560 C 112.287 98.985, 102.950 99.474, 92.500 99.646 C 82.050 99.818, 72.215 99.968, 70.645 99.979 C 67.922 99.999, 67.814 100.173, 68.314 103.750 C 68.603 105.813, 69.161 108.783, 69.555 110.352 C 69.950 111.920, 71.760 115.520, 73.578 118.352 C 75.396 121.183, 78.373 124.967, 80.192 126.761 C 82.011 128.554, 85.137 131.168, 87.137 132.568 C 89.137 133.969, 92.960 135.897, 95.632 136.853 C 98.754 137.970, 100.620 139.266, 100.854 140.480 C 101.054 141.518, 100.408 142.960, 99.418 143.684 C 98.428 144.408, 95.930 145, 93.868 145 C 91.805 145, 89.840 145.450, 89.500 146 C 89.160 146.550, 87.994 147, 86.909 147 C 85.824 147, 81.913 148.643, 78.218 150.651 C 74.523 152.659, 68.575 156.772, 65 159.792 C 61.425 162.812, 57.867 166.231, 57.094 167.391 C 56.320 168.551, 54.776 170.516, 53.662 171.758 C 52.548 172.999, 51.050 175.699, 50.333 177.758 C 49.617 179.816, 49.023 183.188, 49.015 185.250 C 49 189, 49 189, 120.435 189 C 165.675 189, 192.835 188.633, 194.502 187.999 C 196.638 187.187, 197.002 186.574, 196.435 184.749 C 196.050 183.512, 195.345 182.350, 194.868 182.167 C 194.391 181.983, 194 180.948, 194 179.867 C 194 178.786, 193.264 176.461, 192.365 174.700 C 191.465 172.940, 190.115 171.140, 189.365 170.700 C 188.614 170.260, 187.998 169.360, 187.995 168.700 C 187.993 168.040, 186.514 165.893, 184.710 163.929 C 182.906 161.965, 179.983 159.718, 178.215 158.935 C 176.447 158.152, 175 156.968, 175 156.304 C 175 155.639, 171.272 153.274, 166.715 151.048 C 162.158 148.821, 157.877 147, 157.201 147 C 156.526 147, 155.191 146.623, 154.236 146.163 C 153.281 145.702, 150.741 144.465, 148.591 143.413 C 146.441 142.361, 144.700 141.064, 144.722 140.530 C 144.744 139.997, 147.339 138.168, 150.487 136.466 C 153.636 134.765, 156.637 132.613, 157.156 131.686 C 157.675 130.759, 158.685 130, 159.401 130 C 160.117 130, 162.101 128.664, 163.810 127.031 C 165.518 125.399, 167.622 122.699, 168.484 121.031 C 169.346 119.364, 170.477 118, 170.998 118 C 171.518 118, 172.661 115.533, 173.538 112.518 C 174.414 109.504, 175.552 106.777, 176.066 106.459 C 176.580 106.142, 177 104.804, 177 103.486 C 177 101.553, 176.373 100.994, 173.750 100.589 C 171.963 100.313, 162.032 99.903, 151.683 99.677 C 139.524 99.411, 132.465 98.865, 131.733 98.133 C 130.889 97.289, 131.034 97, 132.300 97 C 133.316 97, 134 96.219, 134 95.059 C 134 93.991, 134.563 92.767, 135.250 92.337 C 135.938 91.908, 137.175 91.460, 138 91.343 C 138.825 91.226, 141.149 89.230, 143.164 86.907 C 145.179 84.584, 147.054 81.742, 147.332 80.592 C 147.609 79.441, 148.580 76.489, 149.488 74.032 C 150.490 71.322, 150.903 68.298, 150.537 66.347 C 150.205 64.578, 148.615 60.223, 147.004 56.669 C 145.180 52.647, 142.644 49.024, 140.287 47.074 C 138.204 45.352, 134.281 43.280, 131.568 42.471 C 128.856 41.662, 124.356 41.046, 121.568 41.102 C 118.781 41.159, 115.086 41.542, 113.358 41.954 M 53 184 C 53 184.550, 53.450 185, 54 185 C 54.550 185, 55 184.550, 55 184 C 55 183.450, 54.550 183, 54 183 C 53.450 183, 53 183.450, 53 184" stroke="none" fill="#3684c1" fill-rule="evenodd"/></svg>