<svg xmlns="http://www.w3.org/2000/svg" width="100%" height="auto" viewBox="0 0 512 512" version="1.1" preserveAspectRatio="xMidYMid meet" style="max-width: 100%; max-height: 70vh;">
	<path d="M 83.112 8.581 C 65.913 13.206, 50.788 27.512, 44.812 44.810 L 42.500 51.500 42.500 255 C 42.500 451.246, 42.567 458.696, 44.372 464 C 51.221 484.119, 66.195 498.430, 85.721 503.516 C 90.664 504.803, 115.987 504.995, 276.460 504.965 C 425.034 504.936, 461.955 504.676, 463.810 503.647 C 465.081 502.942, 466.990 501.045, 468.054 499.433 C 469.946 496.561, 469.987 492.744, 469.993 316.700 C 470.001 119.103, 470.438 132.829, 464.033 129.517 C 462.419 128.683, 459.270 128, 457.035 128 C 453.802 128, 452.207 128.700, 449.235 131.423 L 445.500 134.846 445.239 307.939 L 444.978 481.033 268.739 480.766 C 100.869 480.513, 92.277 480.413, 87.805 478.675 C 80.492 475.832, 70 465.494, 70 461.132 C 70 460.294, 112.556 459.985, 233.750 459.944 C 357.927 459.901, 398.323 459.599, 400.906 458.694 C 410.170 455.448, 411.529 441.697, 403.080 436.706 C 400.389 435.116, 388.885 435, 234.575 435 L 68.959 435 70.986 431.028 C 74.179 424.769, 78.668 420.310, 84.818 417.290 L 90.500 414.500 245.500 414 C 370.967 413.595, 400.939 413.250, 402.804 412.186 C 404.070 411.464, 405.981 409.439, 407.050 407.686 C 408.953 404.564, 408.993 401.074, 408.996 235.250 L 409 66 427 66 L 445 66 445 83.599 C 445 97.816, 445.314 101.860, 446.635 104.643 C 450.601 113.001, 464.265 113.189, 468.529 104.944 C 469.856 102.379, 470.047 97.856, 469.796 74.979 L 469.500 48.035 466.232 44.768 L 462.965 41.500 435.982 41.204 L 409 40.908 409 28.855 C 409 15.354, 407.880 11.542, 403.080 8.706 C 400.389 7.117, 389.516 7.005, 244.346 7.066 C 111.551 7.122, 87.703 7.346, 83.112 8.581 M 91.147 32.075 C 81.786 33.916, 72.040 42.413, 68.743 51.609 C 67.098 56.198, 66.990 67.026, 66.995 227.250 C 66.998 321.163, 67.168 398, 67.374 398 C 67.580 398, 69.717 396.914, 72.124 395.587 C 74.531 394.261, 78.412 392.614, 80.750 391.929 L 85 390.683 85.004 226.592 C 85.007 65.607, 85.044 62.439, 86.960 59.299 C 91.281 52.211, 100.551 51.089, 106.407 56.945 L 109.500 60.038 109.759 224.519 L 110.018 389 247.009 389 L 384 389 384 210 L 384 31 239.750 31.110 C 160.412 31.170, 93.541 31.604, 91.147 32.075" stroke="none" fill="currentColor" fill-rule="evenodd"/>
</svg>