<svg width="683" height="683" viewBox="0 0 683 683" fill="none" xmlns="http://www.w3.org/2000/svg">
<g clip-path="url(#clip0_389_375)">
<path d="M66.8 87.3332C43.0667 92.5332 20.4 110.267 9.60002 132.133C-0.533318 152.533 1.57135e-05 140.933 1.57135e-05 341.333C1.57135e-05 541.733 -0.533318 530.133 9.60002 550.533C20.5333 572.667 43.0667 590.133 67.4667 595.333C81.3334 598.267 601.333 598.267 615.2 595.333C647.067 588.667 674 561.733 680.667 529.867C683.6 516 683.6 166.667 680.667 152.8C674 120.933 647.067 93.9998 615.2 87.3332C601.733 84.5332 80 84.5332 66.8 87.3332ZM616 129.867C614.933 130.933 552.667 178.933 477.733 236.533L341.333 341.333L205.067 236.533C130 178.933 67.7334 130.933 66.6667 129.867C65.0667 128.267 104.667 128 341.333 128C578 128 617.6 128.267 616 129.867ZM146.4 251.333C194.533 288.667 233.733 319.733 233.6 320.4C233.467 320.933 190.933 367.067 139.067 422.8C55.0667 513.2 44.6667 524 43.8667 521.2C43.3334 519.467 42.9334 439.867 42.8 344.267L42.6667 170.533L50.8 176.933C55.3334 180.4 98.2667 213.867 146.4 251.333ZM638.933 520.267C638 524.133 636 522.133 543.6 422.8C491.733 367.067 449.2 320.933 449.067 320.4C448.933 319.867 491.733 286.133 544.133 245.333L639.333 171.2L639.733 343.733C639.867 438.667 639.6 518 638.933 520.267ZM512.4 454.267L606.533 553.2L473.333 553.6C400.133 553.867 280.8 553.867 208.133 553.6L76.1333 553.2L170.8 452.267C222.8 396.8 266.267 350.8 267.2 350.133C268.533 349.2 278.667 356.267 303.867 375.2C322.933 389.6 339.467 401.733 340.4 402.133C341.467 402.533 357.2 390.933 376.667 375.333L411.2 348L414.8 351.6C416.667 353.733 460.667 399.867 512.4 454.267Z" fill="#F08C00"/>
</g>
<defs>
<clipPath id="clip0_389_375">
<rect width="682.667" height="682.667" fill="white"/>
</clipPath>
</defs>
</svg>
