<svg width="683" height="683" viewBox="0 0 683 683" fill="none" xmlns="http://www.w3.org/2000/svg">
<path d="M112.4 11.2002C86.2667 17.6002 64.4 39.8668 58 66.8002C55.0667 79.4668 54.9333 598.267 58 612.667C62.5333 634.134 77.6 654.267 96.8 664.267C115.2 673.867 96.4 673.334 369.067 673.334C598.4 673.334 615.2 673.2 618.8 671.067C627.2 666 626.667 683.6 626.667 422.134C626.667 157.467 627.333 176.534 617.733 172.534C607.6 168.267 597.467 172.667 594.667 182.534C593.867 185.6 593.333 268.267 593.333 414.4V641.334L357.733 641.067L122 640.667L115.333 637.6C111.733 635.867 106.933 632.934 104.8 630.934C99.7333 626.134 93.3333 617.334 93.3333 615.2C93.3333 613.734 130.933 613.334 313.733 613.067C524.667 612.667 534.267 612.534 537.867 610.267C546.133 604.8 547.2 592.934 540 584.934L536.267 580.667L314 580.267L91.8667 580L95.6 573.2C100.133 564.667 107.733 558.134 116.933 554.667C124 552 127.067 552 327.733 552C518.933 552 531.6 551.867 536 549.6C538.667 548.267 541.6 545.334 542.933 542.667C545.2 538.267 545.333 524.534 545.333 312.934V88.0002H569.333H593.333V109.6C593.333 121.6 594 133.6 594.667 136.267C597.6 146.4 608.933 151.067 618.8 145.867C626 142.267 626.667 138.4 626.667 101.333C626.667 64.2668 626.267 62.1335 618.267 57.3335C614.267 54.9335 611.333 54.6668 579.733 54.6668H545.6L545.067 36.5335L544.667 18.4002L539.733 13.8668L534.667 9.33349L327.067 9.46683C164.267 9.60016 117.867 9.86683 112.4 11.2002ZM512 280V518.667H329.333H146.667L146.4 299.2L146 79.7335L141.733 76.0002C133.067 68.2668 120.533 70.1335 115.733 80.0002C113.467 84.4002 113.333 97.8668 113.333 302.8V521.067L106.4 523.334C102.533 524.534 97.3333 526.667 94.9333 528.134C92.5333 529.467 90.2667 530.667 89.8667 530.667C89.6 530.667 89.3333 428.134 89.3333 302.934C89.3333 47.0668 88.4 68.4002 99.6 56.0002C106 48.8002 112.667 44.8002 120.933 42.8002C123.733 42.1335 211.867 41.6002 319.067 41.4668L512 41.3335V280Z" fill="#F08C00"/>
</svg>
