<svg xmlns="http://www.w3.org/2000/svg" width="100%" height="auto" viewBox="0 0 512 512" version="1.1" preserveAspectRatio="xMidYMid meet" style="max-width: 100%; max-height: 70vh;">
	<path d="M 50 65.555 C 26.634 70.573, 6.423 90.970, 1.499 114.500 C -0.693 124.979, -0.693 387.021, 1.499 397.500 C 5.299 415.658, 18.480 432.702, 35.034 440.862 C 50.467 448.471, 34.743 447.965, 256 447.965 C 477.257 447.965, 461.533 448.471, 476.966 440.862 C 492.956 432.980, 506.700 415.689, 510.003 399.300 C 510.646 396.110, 511.584 392.719, 512.086 391.764 C 513.158 389.727, 513.366 118.301, 512.295 119.372 C 511.907 119.760, 511.018 117.248, 510.319 113.789 C 506.830 96.513, 493.273 79.176, 476.966 71.138 C 461.523 63.525, 477.345 64.028, 255.500 64.097 C 89.142 64.149, 55.434 64.388, 50 65.555 M 50.036 97.354 C 54.489 101.471, 255.074 255, 256 255 C 256.926 255, 457.511 101.471, 461.964 97.354 C 463.196 96.215, 430.475 96, 256 96 C 81.525 96, 48.804 96.215, 50.036 97.354 M 0.486 256 C 0.486 331.075, 0.605 361.788, 0.750 324.250 C 0.895 286.712, 0.895 225.288, 0.750 187.750 C 0.605 150.212, 0.486 180.925, 0.486 256 M 32 257.292 C 32 327.944, 32.281 387.156, 32.625 388.875 C 32.969 390.594, 33.544 392, 33.904 392 C 34.782 392, 173.953 242.285, 174.570 240.678 C 174.862 239.916, 147.105 217.674, 104.410 184.459 C 65.556 154.232, 33.369 129.350, 32.883 129.167 C 32.375 128.975, 32 183.394, 32 257.292 M 408 184.090 C 369.225 214.321, 337.553 239.660, 337.618 240.401 C 337.739 241.790, 476.930 392, 478.096 392 C 478.456 392, 479.031 390.594, 479.375 388.875 C 480.273 384.387, 480.150 128.987, 479.250 129.063 C 478.837 129.097, 446.775 153.859, 408 184.090 M 282.740 281.531 C 268.577 292.789, 256.522 302, 255.950 302 C 255.379 302, 242.944 292.929, 228.317 281.843 C 209.642 267.688, 201.344 261.955, 200.451 262.593 C 199.751 263.092, 167.327 297.475, 128.397 339 L 57.616 414.500 156.808 414.755 C 211.364 414.895, 300.644 414.895, 355.209 414.755 L 454.418 414.500 382.571 339 C 343.055 297.475, 310.221 262.952, 309.607 262.281 C 308.752 261.347, 302.478 265.842, 282.740 281.531" stroke="none" fill="currentColor" fill-rule="evenodd"/>
</svg>