<svg xmlns="http://www.w3.org/2000/svg" width="100%" height="auto" viewBox="0 0 512 512" version="1.1" preserveAspectRatio="xMidYMid meet" style="max-width: 100%; max-height: 70vh;">
	<path d="M 252.358 1.046 C 250.630 1.407, 247.705 2.657, 245.858 3.823 C 244.011 4.989, 188.950 47.037, 123.500 97.263 C 18.530 177.816, 4.235 189.104, 2.250 193.003 L -0 197.424 0 329.075 C 0 406.367, 0.385 462.759, 0.933 465.647 C 4.814 486.109, 19.256 502.528, 39.132 509.074 L 46.500 511.500 256 511.500 L 465.500 511.500 472.828 509.100 C 490.699 503.245, 505.196 488.274, 509.473 471.254 C 510.406 467.539, 511.582 463.719, 512.085 462.764 C 513.105 460.827, 513.394 195.272, 512.375 196.292 C 512.031 196.635, 510.794 195.036, 509.625 192.737 C 507.803 189.154, 490.518 175.527, 388.500 97.248 C 323.050 47.028, 267.983 4.983, 266.129 3.813 C 262.062 1.249, 256.619 0.155, 252.358 1.046 M 152.297 121.332 C 95.536 164.874, 49.073 200.801, 49.047 201.170 C 49.003 201.804, 195.413 316.125, 197.180 316.836 C 197.639 317.021, 208.524 308.402, 221.369 297.683 C 234.214 286.964, 246.213 277.424, 248.035 276.482 C 252.278 274.288, 259.722 274.288, 263.965 276.482 C 265.787 277.424, 277.786 286.964, 290.631 297.683 C 303.476 308.402, 314.361 317.021, 314.820 316.836 C 316.583 316.127, 462.998 201.804, 462.955 201.170 C 462.911 200.496, 257.407 42.646, 256.166 42.332 C 255.800 42.239, 209.059 77.789, 152.297 121.332 M 0.486 330 C 0.486 403.425, 0.605 433.463, 0.750 396.750 C 0.895 360.038, 0.895 299.963, 0.750 263.250 C 0.605 226.538, 0.486 256.575, 0.486 330 M 37 345.083 C 37 406.287, 37.373 450.027, 37.893 449.833 C 40.461 448.874, 167.993 341.798, 167.506 341.010 C 166.800 339.868, 38.309 240, 37.546 240 C 37.246 240, 37 287.288, 37 345.083 M 408.640 290.682 L 343.780 341.241 346.640 343.989 C 350.581 347.775, 473.871 450, 474.497 450 C 474.773 450, 475 402.750, 475 345 C 475 287.250, 474.663 240.027, 474.250 240.061 C 473.837 240.095, 444.313 262.874, 408.640 290.682 M 160.732 395.748 L 65.977 474.500 160.988 474.755 C 213.245 474.895, 298.734 474.895, 350.964 474.755 L 445.928 474.500 351.471 396.002 C 299.520 352.829, 256.670 317.390, 256.251 317.250 C 255.831 317.110, 212.847 352.434, 160.732 395.748" stroke="none" fill="currentColor" fill-rule="evenodd"/>
</svg>