<svg width="683" height="683" viewBox="0 0 683 683" fill="none" xmlns="http://www.w3.org/2000/svg">
<g clip-path="url(#clip0_389_378)">
<path d="M329.2 4.39964C326.533 5.99964 252.667 62.3996 164.933 129.733C23.4667 238.4 5.2 252.666 2.8 257.866L0 263.6L0.266667 442.8L0.666667 622L3.6 630.8C11.4667 654 30.5333 672 54.5333 679.2C61.2 681.066 88.1333 681.333 341.467 681.333H621.067L630.133 678.533C652.667 671.6 671.333 653.466 679.067 630.666L682 622L682.4 442.8L682.8 263.6L679.867 257.866C677.333 252.533 660 238.8 517.067 129.2C429.2 61.733 355.2 5.33297 352.933 3.86631C346.8 0.266306 335.467 0.399639 329.2 4.39964ZM479.333 161.466C554.933 219.466 616.8 267.466 617.067 268C617.333 268.666 572.933 303.866 518.4 346.266L419.2 423.333L390 398.933C352.667 367.866 350.933 366.666 341.333 366.666C331.733 366.666 329.733 367.866 292.8 398.933L263.6 423.466L164.4 346.266C109.867 303.866 65.3333 268.666 65.6 268C65.8667 267.333 86.4 251.333 111.333 232.266C136.267 213.2 198.133 165.733 248.667 126.8C299.333 87.9996 340.933 56.133 341.333 56.133C341.733 56.133 403.867 103.466 479.333 161.466ZM146.933 394.4C189.2 427.2 223.867 454.533 223.867 455.333C223.867 456 199.2 477.066 169.067 502C139.067 526.933 99.7333 559.466 81.8667 574.4L49.3333 601.333V460V318.533L59.7333 326.533C65.3333 331.066 104.667 361.466 146.933 394.4ZM633.067 530.4L632.667 600.8L545.733 528.666C498 489.066 459.067 456 459.2 455.333C459.333 454.533 498.533 423.733 546.133 386.666L632.667 319.2L633.067 389.6C633.2 428.266 633.2 491.733 633.067 530.4ZM468.933 528L594.8 632.666L468 633.066C398.4 633.2 284.267 633.2 214.533 633.066L87.7333 632.666L214.133 527.6C283.6 469.866 341.067 422.8 341.733 423.066C342.533 423.333 399.733 470.533 468.933 528Z" fill="#F08C00"/>
</g>
<defs>
<clipPath id="clip0_389_378">
<rect width="682.667" height="682.667" fill="white"/>
</clipPath>
</defs>
</svg>
